<svg id="Layer_1" data-name="Layer 1" xmlns="http://www.w3.org/2000/svg" width="208" height="82" viewBox="0 0 208 82">
  <g>
    <g>
      <path d="M12.89,73.54l-2.17,5.65H2.04L15.99,46.18h7.77l13.9,33.01H29.02L26.8,73.54Zm6.95-17.86L15.6,66.59h8.49Z"/>
      <path d="M78.14,79.18H71.82l-15.73-18v18H47.93V46.37h6.23L69.99,64.85V46.37h8.16V79.18Z"/>
      <path d="M118.04,56.55h-8.2c-.43-2.46-1.98-4.15-5.31-4.15-2.8,0-4.68,1.16-4.68,3.28,0,1.79,1.3,2.56,3.76,3.09l4.58,1.06c5.98,1.3,9.89,3.72,9.89,9.36,0,6.56-5.4,10.67-13.61,10.67-7.38,0-14.04-3.47-14.82-11.58h8.16c.53,2.9,3.04,4.63,6.9,4.63,3.04,0,4.63-1.11,4.63-2.9,0-1.11-.68-2.27-3.47-2.8L100.47,66c-6.47-1.4-9.51-4.44-9.51-9.65,0-6.56,5.31-10.71,13.03-10.71C109.31,45.64,117.22,47.72,118.04,56.55Z"/>
      <path d="M137.1,73.54l-2.17,5.65h-8.69l13.95-33.01h7.77l13.9,33.01h-8.64L151,73.54Zm6.95-17.86L139.8,66.59h8.49Z"/>
    </g>
    <path d="M205.76,28.43a12.5262,12.5262,0,0,0-3.12-6.29,14.2517,14.2517,0,0,0,.98-5.11,14.5982,14.5982,0,0,0-2.23-7.61C197.48,3,190.2,3,185.85,3H170.89V33.04h9.33v1.82l-.04,11,9.43-.01h-.01a17.9076,17.9076,0,0,0,7.83-1.27,15.5337,15.5337,0,0,0,6.79-6.62,14.66,14.66,0,0,0,1.75-6.98A16.23,16.23,0,0,0,205.76,28.43Zm-5.05,7.64a11.7552,11.7552,0,0,1-4.99,4.91,14.7955,14.7955,0,0,1-6.26.89h-.07l-4.79-.1V38.16h.01V33.05h6.63l1.24,2.25h4.93L185.22,13.27h-5.01V29.06h-5.34V6.99h10.97c4.9,0,9.65.37,12.13,4.51a10.6507,10.6507,0,0,1,1.64,5.54,10.994,10.994,0,0,1-1.23,4.85c-.16.24-.37.57-.65.94,0,0,.18.15.39.35l.26.26c.36.36.69.72,1.02,1.09a10.2811,10.2811,0,0,1,.8.97,8.1041,8.1041,0,0,1,1.62,3.58,12.3881,12.3881,0,0,1,.15,1.91A10.6768,10.6768,0,0,1,200.71,36.07Zm-16.1-7.02V21.01l4.43,8.04Z"/>
  </g>
</svg>
