<?xml version="1.0" encoding="UTF-8"?>
<svg id="Layer_1" data-name="Layer 1" xmlns="http://www.w3.org/2000/svg" width="438" height="319" viewBox="0 0 438 319">
  <path d="m126.1135,0h212.7731c5.5192,0,10,4.4808,10,10v299c0,5.5192-4.4808,10-10,10H126.1135c-20.4209,0-37-16.5791-37-37V37C89.1135,16.5791,105.6926,0,126.1135,0Z" style="opacity: .05;"/>
  <path d="m348.8865,308.9999v-54.0001s0-.0008,0-.0012V10c0-5.5229-4.4771-10-10-10H126.1135c-20.4346,0-37,16.5654-37,37v244.9975c0,.0008,0,.0016,0,.0024,0,10.2173,4.1414,19.4673,10.8371,26.163s15.9457,10.8371,26.163,10.8371h212.7729c2.7615,0,5.2615-1.1193,7.0711-2.929.5931-.5931,1.103-1.2665,1.5327-1.9929.1409-.2382.271-.4824.3922-.7327.6368-1.3156,1.0041-2.7859,1.0041-4.3455Zm-237.4388-6.7719c-.1628-.1184-.3248-.2378-.4846-.36-.5262-.4022-1.0369-.8235-1.5292-1.2654-.0536-.0481-.1084-.0949-.1616-.1435-5.0102-4.575-8.1589-11.1559-8.1589-18.4592v-.0024c.0013-13.784,11.2156-24.9977,24.9999-24.9977h210.773v50.0001H126.1135c-4.8929,0-9.4583-1.4184-13.3171-3.8577-.4598-.2906-.9097-.595-1.3486-.9142ZM213.7327,12v97.9376l-18.912-12.242-6.4245-4.1587-6.4802,4.0714-20.1832,12.6806V12h52Zm-87.6192,0h23.6192v120l38.5671-24.2308,37.4329,24.2308V12h111.1537v232.9999H126.1135c-9.6393,0-18.4152,3.6887-24.9999,9.7282V37c0-13.7851,11.2149-25,25-25Z"/>
</svg>