<?xml version="1.0" encoding="UTF-8"?>
<svg id="Layer_1" data-name="Layer 1" xmlns="http://www.w3.org/2000/svg" width="438" height="319" viewBox="0 0 438 319">
  <path d="m370,8.1223H68c-11.0457,0-20,8.9543-20,20v263c0,11.0457,8.9543,20,20,20h302c11.0457,0,20-8.9543,20-20V28.1223c0-11.0457-8.9543-20-20-20h0Z" style="opacity: .05;"/>
  <g>
    <path d="m280.1075,34.1223h-26.2564c-4.4183,0-8,3.5817-8,8v17.625c0,4.4183,3.5817,8,8,8h26.2564c4.4183,0,8-3.5817,8-8v-17.625c0-4.4183-3.5817-8-8-8Zm0,25.625h-26.2564v-17.625h26.2564v17.625Z"/>
    <path d="m340.8511,34.1223h-26.2564c-4.4183,0-8,3.5817-8,8v17.625c0,4.4183,3.5817,8,8,8h26.2564c4.4183,0,8-3.5817,8-8v-17.625c0-4.4183-3.5817-8-8-8Zm0,25.625h-26.2564v-17.625h26.2564v17.625Z"/>
    <path d="m370,7.8777H68c-11.0457,0-20,8.9543-20,20v263c0,11.0457,8.9543,20,20,20h302c11.0457,0,20-8.9543,20-20V27.8777c0-11.0457-8.9543-20-20-20Zm8,283c0,4.4112-3.5888,8-8,8H68c-4.4112,0-8-3.5888-8-8V94.6223h318v196.2554Zm0-208.2554H60V27.8777c0-4.4113,3.5888-8,8-8h302c4.4112,0,8,3.5887,8,8v54.7446Z"/>
    <path d="m162.2304,243.5026c1.1324,1.1334,2.6391,1.7578,4.2422,1.7578s3.1098-.6243,4.2424-1.7579c1.1334-1.1328,1.7576-2.6394,1.7576-4.2421s-.6243-3.1093-1.7579-4.2423l-37.6874-37.6884,37.6875-37.6885c1.1335-1.1329,1.7578-2.6395,1.7578-4.2422s-.6243-3.1093-1.7579-4.2423c-1.1323-1.1334-2.639-1.7577-4.2421-1.7577s-3.1098.6243-4.2424,1.7579l-41.9305,41.9305c-1.1335,1.133-1.7578,2.6396-1.7578,4.2422s.6243,3.1093,1.7579,4.2423l41.9305,41.9306Z"/>
    <path d="m265.5273,239.2603c0,1.6027.6243,3.1093,1.7579,4.2423,1.1323,1.1334,2.639,1.7577,4.2421,1.7577s3.1098-.6243,4.2424-1.7579l41.9305-41.9305c1.1335-1.133,1.7578-2.6396,1.7578-4.2422s-.6243-3.1093-1.7579-4.2423l-41.9305-41.9306c-1.1324-1.1334-2.6391-1.7578-4.2422-1.7578s-3.1098.6243-4.2424,1.7579c-1.1334,1.1328-1.7576,2.6394-1.7576,4.2421s.6243,3.1093,1.7579,4.2423l37.6874,37.6884-37.6875,37.6884c-1.1335,1.133-1.7578,2.6396-1.7578,4.2422Z"/>
    <path d="m196.9469,264.2917c.6095.2008,1.2413.3026,1.8777.3026,2.5956,0,4.8854-1.6575,5.698-4.1246l40.3525-122.5262c.5013-1.5222.3799-3.1486-.342-4.5795-.7219-1.4308-1.9578-2.4949-3.48-2.9963-.6096-.2007-1.2414-.3026-1.8778-.3026-2.5955-.0002-4.8854,1.6574-5.6979,4.1246l-40.3526,122.5262c-.5013,1.5223-.3799,3.1486.342,4.5795.7219,1.4308,1.9578,2.495,3.48,2.9963Zm.9266-.2877c.0557.0098.1114.02.1671.0281-.0558-.0081-.1113-.0183-.1671-.0281Zm.9182.0877c.0378.0002.0751-.0031.1129-.0037-.0269.0004-.053.0063-.0799.0063-.0109,0-.022-.0026-.033-.0026Zm.8021-.058c.0433-.0062.0871-.0099.1302-.0172-.0432.0072-.0867.0109-.1302.0172Zm.8493-.1891c.0506-.0156.1003-.0334.1505-.0505-.0502.0171-.0997.0348-.1505.0505Zm.8327-.3299c.0063-.0032.0131-.0054.0195-.0087-.0063.0032-.0131.0055-.0195.0087Zm.664-.3967c.0444-.0305.0889-.0609.1325-.0927-.0437.032-.088.0621-.1325.0927Zm.7014-.5678c.0284-.0273.0545-.0574.0823-.0854-.0279.028-.0539.058-.0823.0854Zm.5358-.6034c.0262-.0339.0541-.066.0796-.1007-.0255.0347-.0533.0667-.0796.1007Zm.4834-.7446c.0262-.0486.0505-.0986.0753-.1482-.0248.0497-.0491.0995-.0753.1482Zm36.4669-130.5465c-.0562-.0099-.1122-.0201-.1684-.0283.0563.0082.1121.0184.1684.0283Zm-.9184-.0878c-.0385-.0002-.0765.0032-.1149.0037.0274-.0004.054-.0064.0814-.0064.0111,0,.0224.0026.0335.0027Zm-.8009.0578c-.0441.0063-.0887.0101-.1326.0175.044-.0073.0884-.0112.1326-.0175Zm-.8501.189c-.0512.0158-.1017.0339-.1524.0512.0509-.0174.101-.0353.1524-.0512Zm-.8312.3292c-.0074.0037-.0151.0063-.0225.01.0073-.0037.0151-.0063.0225-.01Zm-.6653.397c-.045.0309-.0901.0617-.1343.094.0443-.0324.0891-.063.1343-.094Zm-.7021.5683c-.0287.0276-.055.0579-.0831.0862.0282-.0284.0544-.0585.0831-.0862Zm-.5359.6036c-.0262.034-.0542.0661-.0797.1008.0255-.0348.0534-.0667.0797-.1008Zm-.4835.7446c-.0262.0486-.0505.0986-.0753.1482.0248-.0497.0491-.0995.0753-.1482Z"/>
  </g>
</svg>