<?xml version="1.0" encoding="UTF-8"?>
<svg id="Layer_1" data-name="Layer 1" xmlns="http://www.w3.org/2000/svg" width="294" height="82" viewBox="0 0 294 82">
  <g>
    <path d="m10.09,72.51v6.66H1.93v-32.84h8.16v14.92l13.09-14.92h9.66l-12.51,14.39,13.57,18.45h-9.95l-9.17-12.07-4.69,5.41Z"/>
    <path d="m73.75,62.75c0,9.56-7.49,17.1-17.44,17.1-9.4441.1582-17.2282-7.3695-17.3864-16.8136-.1582-9.4441,7.3695-17.2282,16.8136-17.3864.191-.0032.3819-.0032.5729,0,9.96,0,17.44,7.54,17.44,17.1Zm-8.31,0c-.2057-5.0424-4.46-8.9633-9.5024-8.7576-5.0424.2057-8.9633,4.46-8.7576,9.5024.1998,4.8976,4.2283,8.7652,9.13,8.7652,5.0809-.0358,9.1708-4.1836,9.135-9.2645-.0006-.0818-.0022-.1637-.005-.2455Z"/>
    <path d="m121.18,79.17h-8.16v-16.47l-7.29,11.25v.05h-4.54v-.05l-7.34-11.35.05,16.57h-8.16v-32.84h6.04l11.69,17.53,11.64-17.53h6.09v32.84h-.02Z"/>
    <path d="m153.3,79.37h-8.21l-14.25-33.04h8.98l9.37,22.27,9.37-22.27h8.98l-14.24,33.04Z"/>
    <path d="m208.57,62.75c0,9.56-7.49,17.1-17.44,17.1-9.4441.1582-17.2282-7.3695-17.3864-16.8136s7.3695-17.2282,16.8136-17.3864c.1909-.0032.3819-.0032.5729,0,9.95,0,17.44,7.54,17.44,17.1Zm-8.31,0c-.2057-5.0424-4.4601-8.9633-9.5024-8.7576s-8.9633,4.46-8.7576,9.5024c.1998,4.8976,4.2283,8.7652,9.13,8.7652,5.0809-.0358,9.1708-4.1837,9.135-9.2645-.0006-.0818-.0022-.1637-.005-.2455h0Z"/>
    <path d="m246.27,56.52h-8.21c-.43-2.46-1.98-4.15-5.31-4.15-2.8,0-4.68,1.16-4.68,3.28,0,1.79,1.3,2.56,3.77,3.09l4.59,1.06c5.99,1.3,9.9,3.72,9.9,9.37,0,6.57-5.41,10.67-13.62,10.67-7.39,0-14.05-3.48-14.83-11.59h8.16c.53,2.9,3.04,4.64,6.91,4.64,3.04,0,4.64-1.11,4.64-2.9,0-1.11-.68-2.27-3.48-2.8l-5.41-1.21c-6.47-1.4-9.51-4.44-9.51-9.66,0-6.57,5.31-10.72,13.04-10.72,5.3,0,13.22,2.08,14.04,10.92Z"/>
  </g>
  <path d="m291.87,28.44c-.4138-2.355-1.501-4.5397-3.13-6.29.6422-1.6274.9746-3.3605.98-5.11-.0232-2.693-.7916-5.3269-2.22-7.61-3.91-6.43-11.19-6.43-15.53-6.43h-14.97v30.03h9.28v12.82h9.42c2.6684.1573,5.3386-.2764,7.82-1.27,2.8947-1.4533,5.2696-3.7654,6.8-6.62,1.1554-2.1483,1.7569-4.5507,1.75-6.99.0014-.8473-.0654-1.6934-.2-2.53Zm-5.05,7.63c-1.1233,2.1075-2.8646,3.8209-4.99,4.91-1.84.87-4.06.8-6.26.79h-4.86v-12.5l2.55-2.94,4.97,6.56h5.41l-7.38-10.02,6.8-7.8h-5.24l-7.11,8.09v-8.09h-4.42v13.99h-5.3V6.98h10.97c4.91,0,9.66.38,12.13,4.52,1.0508,1.659,1.6218,3.5764,1.65,5.54-.0121,2.0735-.673,4.0912-1.89,5.77,4.52,4.03,4.23,6.93,4.23,8.17.0092,1.775-.4238,3.5243-1.26,5.09Z"/>
</svg>