<?xml version="1.0" encoding="UTF-8"?>
<svg id="Layer_1" data-name="Layer 1" xmlns="http://www.w3.org/2000/svg" width="197" height="82" viewBox="0 0 197 82">
  <g>
    <path d="m37.51,79.19h-8.15v-16.45l-7.28,11.24v.05h-4.53v-.05l-7.33-11.33.05,16.54H2.11v-32.8h6.03l11.67,17.51,11.63-17.51h6.08v32.8h-.01Z"/>
    <path d="m58.2,59.46h14.52v6.95h-14.52v5.69h16.64v7.09h-24.79v-32.8h24.79v7.09h-16.64v5.98Z"/>
    <path d="m102.14,53.67v25.51h-8.15v-25.51h-10.47v-7.28h29.04v7.28h-10.42Z"/>
    <path d="m126.55,73.54l-2.17,5.64h-8.68l13.94-32.99h7.77l13.89,32.99h-8.63l-2.22-5.64h-13.9Zm6.94-17.84l-4.25,10.9h8.49l-4.24-10.9Z"/>
  </g>
  <path d="m194.69,28.42c-.4277-2.3484-1.5091-4.5285-3.12-6.29.6296-1.6307.9583-3.362.97-5.11-.0328-2.6916-.8005-5.323-2.22-7.61-3.9-6.41-11.18-6.41-15.52-6.41h-14.94l-.03,29.76h7.94v13.09h13.49c1.1474-.0958,2.2808-.3171,3.38-.66h.03v-.01c.581-.1651,1.1492-.3723,1.7-.62,2.8962-1.4464,5.2721-3.7559,6.8-6.61,1.1488-2.1468,1.7467-4.5452,1.74-6.98-.0059-.8545-.0794-1.7071-.22-2.55Zm-5.04,7.63c-.0124.0096-.0197.0243-.02.04l.03.01c-1.1237,2.1047-2.8652,3.8148-4.99,4.9-1.9992.7402-4.1337,1.0436-6.26.89h-.07l-6.98-.1v-19.44l2.98,5.11h2.37l3.01-5.16v10.5h3.08V14.04h-2.87l-4.39,8.73-4.9-8.73h-2.87v14.67h-3.94V6.99h10.97c4.9,0,9.64.37,12.12,4.5,1.0467,1.6603,1.6142,3.5775,1.64,5.54-.0282,1.687-.4493,3.3442-1.23,4.84-.16.25-.37.57-.65.94,0,0,.18.15.39.36l.26.27c.35.35.69.71,1.02,1.08.29.32.55.64.8.97.8235,1.0398,1.3798,2.2655,1.62,3.57.0952.6322.142,1.2707.14,1.91.0055,1.7713-.4274,3.5165-1.26,5.08h0Z"/>
</svg>