<?xml version="1.0" encoding="UTF-8"?>
<svg id="Layer_1" data-name="Layer 1" xmlns="http://www.w3.org/2000/svg" width="438" height="319" viewBox="0 0 438 319">
  <g>
    <path d="m234,29.7686v-14.7686h35.5c4.1422,0,7.5-3.3578,7.5-7.5s-3.3578-7.5-7.5-7.5h-101c-4.1422,0-7.5,3.3578-7.5,7.5s3.3578,7.5,7.5,7.5h35.5v14.7686c-73.0331,7.5062-130,69.2152-130,144.2314,0,80.0812,64.9188,145,145,145s145-64.9188,145-145c0-75.0162-56.967-136.7253-130-144.2314Zm79.0452,238.2766c-25.1204,25.1204-58.5196,38.9548-94.0452,38.9548s-68.9248-13.8344-94.0452-38.9548c-25.1204-25.1204-38.9548-58.5196-38.9548-94.0452s13.8344-68.9248,38.9548-94.0452,58.5196-38.9548,94.0452-38.9548,68.9248,13.8344,94.0452,38.9548c25.1204,25.1204,38.9548,58.5196,38.9548,94.0452s-13.8344,68.9248-38.9548,94.0452Z"/>
    <path d="m226,146.0179v-67.5179c0-3.5898-2.9102-6.5-6.5-6.5h-1c-3.5898,0-6.5,2.9102-6.5,6.5v67.5179c-5.0692,1.2507-9.7193,3.8594-13.5061,7.6462-5.4774,5.4774-8.4939,12.7599-8.4939,20.5061s3.0165,15.0287,8.4939,20.506,12.7599,8.494,20.5061,8.494,15.0287-3.0165,20.5061-8.494,8.4939-12.7599,8.4939-20.506-3.0165-15.0287-8.4939-20.5061c-3.7868-3.7868-8.437-6.3955-13.5061-7.6462Z"/>
  </g>
  <path d="m317.2879,75.7121c-26.2537-26.2536-61.1596-40.7121-98.2879-40.7121s-72.0342,14.4585-98.2878,40.7121-40.7122,61.1596-40.7122,98.2879,14.4585,72.0342,40.7122,98.2878c26.2536,26.2537,61.1596,40.7122,98.2878,40.7122s72.0342-14.4585,98.2879-40.7122,40.7121-61.1596,40.7121-98.2878-14.4585-72.0342-40.7121-98.2879Z" style="opacity: .05;"/>
</svg>