<?xml version="1.0" encoding="UTF-8"?>
<svg id="Layer_1" data-name="Layer 1" xmlns="http://www.w3.org/2000/svg" width="438" height="319" viewBox="0 0 438 319">
  <path d="m276.8985,0c-22.8333.5161-44.1706,11.4885-57.8985,29.7733C205.2721,11.4885,183.9348.516,161.1016,0H29v290.0001h132.1016c.1617-.0017.3235-.0027.485-.0027,15.0428,0,29.2005,7.1731,38.114,19.3359,5.1581,5.3141,11.9608,8.7214,19.2994,9.6667,7.3297-.9749,14.1232-4.3777,19.2995-9.6667,8.9129-12.162,23.0721-19.3359,38.114-19.3359.1624,0,.3224.001.485.0027h132.1015V0h-132.1015Z" style="opacity: .05;"/>
  <g>
    <rect x="77.6667" y="148.1223" width="90" height="12" rx="5.5" ry="5.5"/>
    <rect x="75.4376" y="74.5" width="90" height="12" rx="5.5" ry="5.5"/>
    <rect x="77.6667" y="221.7447" width="90" height="12" rx="5.5" ry="5.5"/>
    <path d="m276.8985,0c-22.8333.5161-44.1706,11.4885-57.8985,29.7733C205.2721,11.4885,183.9348.516,161.1016,0H29v290h132.1016c.1617-.0016.3235-.0026.485-.0026,15.0428,0,29.2005,7.1731,38.114,19.3359,5.1581,5.3141,11.9608,8.7214,19.2994,9.6667,7.3297-.9748,14.1232-4.3776,19.2995-9.6667,8.9129-12.162,23.0721-19.3359,38.114-19.3359.1624,0,.3224.001.485.0026h132.1015V0h-132.1015Zm-64.8985,303.9763c-1.1418-.7316-2.2186-1.5687-3.2014-2.5154-11.1594-14.7108-28.7337-23.4634-47.212-23.4634-.1797,0-.3596.001-.5396.0026H41V12h119.9604c19.2261.4738,36.8772,9.5728,48.4432,24.9781l2.5964,3.4582v263.54Zm185-25.9763h-120.0477c-.1802-.0016-.3584-.0026-.5388-.0026-18.4691,0-36.035,8.7439-47.1955,23.4416-.9891.944-2.0714,1.7799-3.218,2.512V40.4363l2.5964-3.4582c11.566-15.4053,29.2171-24.5043,48.4432-24.9781h119.9604v266Z"/>
    <rect x="272.4376" y="74.5" width="90" height="12" rx="5.5" ry="5.5"/>
    <rect x="272.4376" y="221.7447" width="90" height="12" rx="5.5" ry="5.5"/>
    <rect x="272.4376" y="148.1223" width="90" height="12" rx="5.5" ry="5.5"/>
  </g>
</svg>