<?xml version="1.0" encoding="utf-8"?>
<!-- Generator: Adobe Illustrator 21.0.0, SVG Export Plug-In . SVG Version: 6.00 Build 0)  -->
<svg version="1.1" id="Layer_1" xmlns="http://www.w3.org/2000/svg" xmlns:xlink="http://www.w3.org/1999/xlink" x="0px" y="0px"
	 viewBox="0 0 331 150" enable-background="new 0 0 331 150" xml:space="preserve">
<g>
	<path fill="#005BAA" d="M330.68,38.88c-0.65-4.03-2.61-7.1-4.77-9.62c0.99-2.6,1.49-5.21,1.49-7.81c0-3.98-1.14-7.88-3.4-11.63
		C318.02,0,306.9,0,300.25,0h-22.9v52.91h12.95v12.61c0,0,15.68,0,15.69,0c0,0-0.01,0-0.03,0c3.48,0,7.83-0.03,11.97-1.97
		c4.21-2,8-5.68,10.39-10.11c1.78-3.32,2.68-6.91,2.68-10.67C331,41.51,330.9,40.22,330.68,38.88z M322.96,50.55
		c-1.66,3.08-4.5,6.03-7.62,7.5c-2.82,1.33-6.22,1.37-9.58,1.36c-0.07,0-0.11,0-0.11,0l-9.26,0.02v-6.87l9.51-0.1
		c6.1-0.63,11.08-5,11.04-12.02c0.01-3.85-2.2-8.22-6.69-10.21c1.91-1.56,3.2-4,3.19-7.13c0.01-3.24-1.28-5.89-3.42-7.61
		c-2.14-1.73-5.06-2.55-8.31-2.55c-6.3,0.02-11.34,5.32-11.34,13.62v20.26h-6.92l0.03-40.72h16.76c7.5,0,14.76,0.56,18.54,6.89
		c1.69,2.8,2.52,5.62,2.52,8.46c0,2.42-0.64,4.89-1.89,7.41c-0.24,0.37-0.57,0.87-0.99,1.43c0,0,0.26,0.24,0.59,0.55l0.4,0.4
		c0.54,0.55,1.06,1.1,1.56,1.66c0.43,0.49,0.84,0.98,1.21,1.48c1.23,1.65,2.15,3.43,2.47,5.47c0.16,0.98,0.23,1.96,0.23,2.92
		C324.9,45.48,324.27,48.08,322.96,50.55z M306.92,28.78c0,0-0.77,1.36-1.58,2.15c0,0,1.32,1.04,2.03,1.74
		c0.08,0.08,0.15,0.17,0.2,0.25c1.56,1.46,2.33,3.81,2.33,5.92c-0.02,4.98-2.57,7.71-5.97,7.96l-0.35,0.02h-7.03V27.84
		c0.03-5.95,2.52-9.14,5.52-9.17c3.49,0.08,5.73,2.19,5.76,6.43c0,1.58-0.35,2.77-0.91,3.66L306.92,28.78z"/>
	<g>
		<path fill="#414042" d="M0.58,66.07H24.3c5.84,0,10.44,1.61,13.35,4.52c2.34,2.35,3.51,5.18,3.51,8.69v0.15
			c0,5.77-3.07,8.98-6.72,11.03c5.91,2.26,9.57,5.69,9.57,12.55v0.15c0,9.35-7.6,14.01-19.13,14.01H0.58V66.07z M21.89,86.72
			c4.97,0,8.1-1.61,8.1-5.4v-0.15c0-3.36-2.63-5.26-7.37-5.26H11.53v10.8H21.89z M24.89,107.31c4.96,0,7.95-1.75,7.95-5.55v-0.14
			c0-3.43-2.56-5.54-8.32-5.54H11.53v11.24H24.89z"/>
		<path fill="#414042" d="M81.03,66.07h38.54v10H92.19v10.37h24.09v10H92.19v10.73h27.74v10h-38.9V66.07z"/>
		<path fill="#414042" d="M169.58,76.43h-15.55V66.07h42.34v10.36h-15.55v40.73h-11.24V76.43z"/>
		<path fill="#414042" d="M243.67,65.7h10.37l21.89,51.46h-11.75l-4.68-11.46h-21.6l-4.67,11.46h-11.46L243.67,65.7z M255.5,95.77
			l-6.79-16.57l-6.79,16.57H255.5z"/>
	</g>
	<g>
		<g>
			<path fill="#6D6E71" d="M9.95,140.51h-1.3c-0.3-1.54-1.41-2.54-3.53-2.54c-1.91,0-3.17,0.93-3.17,2.4c0,1.15,0.91,1.85,2.58,2.15
				l1.91,0.37c2.24,0.43,3.51,1.48,3.51,3.29c0,2.3-1.88,3.83-4.7,3.83c-3.03,0-4.96-1.58-5.25-4.31h1.3
				c0.31,1.97,1.69,3.12,4.01,3.12c2.02,0,3.3-0.99,3.3-2.49c0-1.06-0.74-1.85-2.38-2.15l-2.19-0.43c-2.32-0.42-3.49-1.59-3.49-3.3
				c0-2.17,1.8-3.62,4.47-3.62C7.59,136.82,9.63,138.02,9.95,140.51z"/>
			<path fill="#6D6E71" d="M16.4,149.72h-1.32V137.1h1.32V149.72z"/>
			<path fill="#6D6E71" d="M34.38,149.72h-1.32l0.02-9.73l-4.34,7.24h-0.89l-4.38-7.3l0.04,9.78h-1.32V137.1h1.02l5.08,8.54
				l5.09-8.54h1V149.72z"/>
			<path fill="#6D6E71" d="M50.75,144.36c0,3.32-2.16,5.64-5.39,5.64c-3.21,0-5.36-2.32-5.36-5.64v-7.26h1.32v7.26
				c0,2.52,1.61,4.42,4.05,4.42c2.43,0,4.06-1.89,4.06-4.42v-7.26h1.32V144.36z"/>
			<path fill="#6D6E71" d="M64.7,149.72h-8.36V137.1h1.32v11.44h7.04V149.72z"/>
			<path fill="#6D6E71" d="M71.15,146.05l-1.63,3.68h-1.41L73.85,137h1.24l5.74,12.72h-1.41l-1.63-3.68H71.15z M74.46,138.58
				l-2.77,6.25h5.55L74.46,138.58z"/>
			<path fill="#6D6E71" d="M88.56,138.3v11.42h-1.32V138.3h-4.7v-1.21h10.71v1.21H88.56z"/>
			<path fill="#6D6E71" d="M98.95,149.72h-1.32V137.1h1.32V149.72z"/>
			<path fill="#6D6E71" d="M117.31,143.41c0,3.64-2.93,6.57-6.57,6.57c-3.64,0-6.57-2.93-6.57-6.57s2.93-6.57,6.57-6.57
				C114.38,136.83,117.31,139.77,117.31,143.41z M115.98,143.41c0-2.93-2.3-5.35-5.25-5.35c-2.93,0-5.24,2.42-5.24,5.35
				c0,2.93,2.3,5.35,5.24,5.35C113.67,148.76,115.98,146.34,115.98,143.41z"/>
			<path fill="#6D6E71" d="M133.24,149.72h-1.13l-8.24-10.25v10.25h-1.32V137.1h1.1l8.28,10.36V137.1h1.32V149.72z"/>
			<path fill="#6D6E71" d="M159.66,140.51h-1.3c-0.3-1.54-1.41-2.54-3.53-2.54c-1.91,0-3.17,0.93-3.17,2.4
				c0,1.15,0.91,1.85,2.58,2.15l1.91,0.37c2.25,0.43,3.51,1.48,3.51,3.29c0,2.3-1.88,3.83-4.7,3.83c-3.03,0-4.96-1.58-5.25-4.31h1.3
				c0.31,1.97,1.69,3.12,4.01,3.12c2.02,0,3.3-0.99,3.3-2.49c0-1.06-0.74-1.85-2.38-2.15l-2.19-0.43c-2.32-0.42-3.49-1.59-3.49-3.3
				c0-2.17,1.8-3.62,4.47-3.62C157.3,136.82,159.34,138.02,159.66,140.51z"/>
			<path fill="#6D6E71" d="M177.16,143.41c0,3.64-2.94,6.57-6.57,6.57c-3.64,0-6.57-2.93-6.57-6.57s2.93-6.57,6.57-6.57
				C174.22,136.83,177.16,139.77,177.16,143.41z M175.82,143.41c0-2.93-2.3-5.35-5.25-5.35c-2.93,0-5.24,2.42-5.24,5.35
				c0,2.93,2.3,5.35,5.24,5.35C173.52,148.76,175.82,146.34,175.82,143.41z"/>
			<path fill="#6D6E71" d="M190.74,149.72h-8.35V137.1h1.32v11.44h7.04V149.72z"/>
			<path fill="#6D6E71" d="M205.54,144.36c0,3.32-2.15,5.64-5.38,5.64c-3.21,0-5.37-2.32-5.37-5.64v-7.26h1.32v7.26
				c0,2.52,1.61,4.42,4.05,4.42c2.43,0,4.07-1.89,4.07-4.42v-7.26h1.31V144.36z"/>
			<path fill="#6D6E71" d="M215.64,138.3v11.42h-1.31V138.3h-4.7v-1.21h10.71v1.21H215.64z"/>
			<path fill="#6D6E71" d="M226.03,149.72h-1.32V137.1h1.32V149.72z"/>
			<path fill="#6D6E71" d="M244.39,143.41c0,3.64-2.94,6.57-6.57,6.57c-3.64,0-6.57-2.93-6.57-6.57s2.93-6.57,6.57-6.57
				C241.46,136.83,244.39,139.77,244.39,143.41z M243.06,143.41c0-2.93-2.3-5.35-5.26-5.35c-2.94,0-5.24,2.42-5.24,5.35
				c0,2.93,2.3,5.35,5.24,5.35C240.75,148.76,243.06,146.34,243.06,143.41z"/>
			<path fill="#6D6E71" d="M260.32,149.72h-1.14l-8.24-10.25v10.25h-1.32V137.1h1.1l8.28,10.36V137.1h1.32V149.72z"/>
			<path fill="#6D6E71" d="M275.39,140.51h-1.3c-0.3-1.54-1.41-2.54-3.53-2.54c-1.91,0-3.18,0.93-3.18,2.4
				c0,1.15,0.91,1.85,2.58,2.15l1.91,0.37c2.25,0.43,3.51,1.48,3.51,3.29c0,2.3-1.88,3.83-4.69,3.83c-3.03,0-4.96-1.58-5.26-4.31
				h1.3c0.31,1.97,1.69,3.12,4.01,3.12c2.02,0,3.3-0.99,3.3-2.49c0-1.06-0.74-1.85-2.37-2.15l-2.19-0.43
				c-2.32-0.42-3.49-1.59-3.49-3.3c0-2.17,1.8-3.62,4.47-3.62C273.03,136.82,275.07,138.02,275.39,140.51z"/>
		</g>
	</g>
</g>
</svg>
