<?xml version="1.0" encoding="UTF-8"?>
<svg id="Layer_1" data-name="Layer 1" xmlns="http://www.w3.org/2000/svg" width="331" height="150" viewBox="0 0 331 150">
  <path d="m330.5,38.9c-.6-4-2.6-7.1-4.8-9.6,1-2.6,1.5-5.2,1.5-7.8,0-4-1.1-7.9-3.4-11.6-6-9.9-17.1-9.9-23.7-9.9h-22.9v52.9h13v12.6h15.7c3.5,0,7.8,0,12-2s8-5.7,10.4-10.1c1.8-3.3,2.7-6.9,2.7-10.7-.2-1.2-.3-2.5-.5-3.8Zm-7.7,11.6c-1.7,3.1-4.5,6-7.6,7.5-2.8,1.3-6.2,1.4-9.6,1.4h-9.4v-6.9l9.5-.1c6.1-.6,11.1-5,11-12,0-3.8-2.2-8.2-6.7-10.2,1.9-1.6,3.2-4,3.2-7.1,0-3.2-1.3-5.9-3.4-7.6s-5.1-2.6-8.3-2.6c-6.3,0-11.3,5.3-11.3,13.6v20.3h-6.9V6.2h16.8c7.5,0,14.8.6,18.5,6.9,1.7,2.8,2.5,5.6,2.5,8.5,0,2.4-.6,4.9-1.9,7.4-.2.4-.6.9-1,1.4,0,0,.3.2.6.5l.4.4c.5.5,1.1,1.1,1.6,1.7.4.5.8,1,1.2,1.5,1.2,1.7,2.1,3.4,2.5,5.5.2,1,.2,2,.2,2.9,0,2.6-.6,5.2-1.9001,7.6Zm-16.1-21.7s-.8,1.4-1.6,2.1c0,0,1.3,1,2,1.7.1.1.1.2.2.3,1.6,1.5,2.3,3.8,2.3,5.9,0,5-2.6,7.7-6,8h-7.4v-19c0-6,2.5-9.1,5.5-9.2,3.5.1,5.7,2.2,5.8,6.4.1,1.7-.2,2.9-.8,3.8h0Z" style="fill: #fcfeff;"/>
  <g>
    <path d="m.7,66.1h23.7c5.8,0,10.4,1.6,13.4,4.5,2.3,2.3,3.5,5.2,3.5,8.7v.2c0,5.8-3.1,9-6.7,11,5.9,2.3,9.6,5.7,9.6,12.6v.2c0,9.3-7.6,14-19.1,14H.7v-51.2Zm21.3,20.6c5,0,8.1-1.6,8.1-5.4v-.2c0-3.4-2.6-5.3-7.4-5.3h-11.1v10.8l10.4.1h0Zm3,20.6c5,0,8-1.8,8-5.6v-.1c0-3.4-2.6-5.5-8.3-5.5h-13v11.2h13.3Z" style="fill: #fcfeff;"/>
    <path d="m81,66.1h38.5v10h-27.3v10.4h24.1v10h-24.1v10.7h27.7v10h-38.9v-51.1Z" style="fill: #fcfeff;"/>
    <path d="m169.5,76.4h-15.5v-10.3h42.3v10.4h-15.6v40.7h-11.2v-40.8h0Z" style="fill: #fcfeff;"/>
    <path d="m243.6,65.7h10.3l21.9,51.5h-11.8l-4.7-11.5h-21.6l-4.7,11.5h-11.5l22.1-51.5Zm11.8,30.1l-6.8-16.6-6.8,16.6h13.6Z" style="fill: #fcfeff;"/>
  </g>
  <g>
    <path d="m10,140.4h-1.3c-.3-1.5-1.4-2.5-3.5-2.5-1.9,0-3.2.9-3.2,2.4,0,1.1.9,1.9,2.6,2.1l1.9.4c2.2.4,3.5,1.5,3.5,3.3,0,2.3-1.9,3.8-4.7,3.8-3,0-5-1.6-5.3-4.3h1.3c.3,2,1.7,3.1,4,3.1,2,0,3.3-1,3.3-2.5,0-1.1-.7-1.9-2.4-2.1l-2.1-.5c-2.3-.4-3.5-1.6-3.5-3.3,0-2.2,1.8-3.6,4.5-3.6,2.6,0,4.6,1.2,4.9,3.7Z" style="fill: #fcfeff;"/>
    <path d="m16.5,149.6h-1.3v-12.6h1.3v12.6Z" style="fill: #fcfeff;"/>
    <path d="m34.5,149.6h-1.3v-9.7l-4.3,7.2h-.9l-4.4-7.3v9.8h-1.3v-12.6h1l5.1,8.5,5.1-8.5h1v12.6Z" style="fill: #fcfeff;"/>
    <path d="m50.9,144.3c0,3.3-2.2,5.6-5.4,5.6s-5.4-2.3-5.4-5.6v-7.3h1.3v7.3c0,2.5,1.6,4.4,4,4.4s4.1-1.9,4.1-4.4v-7.3h1.3l.1,7.3h0Z" style="fill: #fcfeff;"/>
    <path d="m64.7,149.6h-8.4v-12.6h1.3v11.4h7l.1,1.2h0Z" style="fill: #fcfeff;"/>
    <path d="m71.2,146l-1.6,3.7h-1.4l5.7-12.7h1.2l5.7,12.7h-1.4l-1.6-3.7h-6.6Zm3.3-7.5l-2.8,6.3h5.6l-2.8-6.3Z" style="fill: #fcfeff;"/>
    <path d="m88.6,138.2v11.4h-1.3v-11.4h-4.7v-1.2h10.7v1.2h-4.7Z" style="fill: #fcfeff;"/>
    <path d="m98.9,149.6h-1.3v-12.6h1.3v12.6Z" style="fill: #fcfeff;"/>
    <path d="m117.3,143.3c0,3.6-2.9,6.6-6.6,6.6s-6.6-2.9-6.6-6.6,2.9-6.6,6.6-6.6,6.6,3,6.6,6.6Zm-1.3,0c0-2.9-2.3-5.4-5.3-5.4-2.9,0-5.2,2.4-5.2,5.4,0,2.9,2.3,5.4,5.2,5.4,3,0,5.3-2.5,5.3-5.4Z" style="fill: #fcfeff;"/>
    <path d="m133.2,149.6h-1.1l-8.2-10.3v10.3h-1.3v-12.6h1.1l8.3,10.4v-10.4h1.3l-.1,12.6h0Z" style="fill: #fcfeff;"/>
    <path d="m159.7,140.4h-1.3c-.3-1.5-1.4-2.5-3.5-2.5-1.9,0-3.2.9-3.2,2.4,0,1.1.9,1.9,2.6,2.1l1.9.4c2.3.4,3.5,1.5,3.5,3.3,0,2.3-1.9,3.8-4.7,3.8-3,0-5-1.6-5.3-4.3h1.3c.3,2,1.7,3.1,4,3.1,2,0,3.3-1,3.3-2.5,0-1.1-.7-1.9-2.4-2.1l-2.2-.4c-2.3-.4-3.5-1.6-3.5-3.3,0-2.2,1.8-3.6,4.5-3.6,2.6-.1,4.6,1.1,5,3.6Z" style="fill: #fcfeff;"/>
    <path d="m177.1,143.3c0,3.6-2.9,6.6-6.6,6.6-3.6,0-6.6-2.9-6.6-6.6s2.9-6.6,6.6-6.6c3.6,0,6.6,3,6.6,6.6Zm-1.4,0c0-2.9-2.3-5.4-5.3-5.4-2.9,0-5.2,2.4-5.2,5.4,0,2.9,2.3,5.4,5.2,5.4,3,0,5.3-2.5,5.3-5.4Z" style="fill: #fcfeff;"/>
    <path d="m190.6,149.6h-8.4v-12.6h1.3v11.4h7l.1,1.2h0Z" style="fill: #fcfeff;"/>
    <path d="m205.4,144.3c0,3.3-2.1,5.6-5.4,5.6-3.2,0-5.4-2.3-5.4-5.6v-7.3h1.3v7.3c0,2.5,1.6,4.4,4.1,4.4,2.4,0,4.1-1.9,4.1-4.4v-7.3h1.3v7.3h0Z" style="fill: #fcfeff;"/>
    <path d="m215.5,138.2v11.4h-1.3v-11.4h-4.7v-1.2h10.7v1.2h-4.7Z" style="fill: #fcfeff;"/>
    <path d="m225.9,149.6h-1.3v-12.6h1.3v12.6Z" style="fill: #fcfeff;"/>
    <path d="m244.3,143.3c0,3.6-2.9,6.6-6.6,6.6-3.6,0-6.6-2.9-6.6-6.6s2.9-6.6,6.6-6.6,6.6,3,6.6,6.6Zm-1.3,0c0-2.9-2.3-5.4-5.3-5.4-2.9,0-5.2,2.4-5.2,5.4,0,2.9,2.3,5.4,5.2,5.4,3,0,5.3-2.5,5.3-5.4Z" style="fill: #fcfeff;"/>
    <path d="m260.2,149.6h-1.1l-8.2-10.3v10.3h-1.3v-12.6h1.1l8.3,10.4v-10.4h1.3l-.1,12.6h0Z" style="fill: #fcfeff;"/>
    <path d="m275.3,140.4h-1.3c-.3-1.5-1.4-2.5-3.5-2.5-1.9,0-3.2.9-3.2,2.4,0,1.1.9,1.9,2.6,2.1l1.9.4c2.3.4,3.5,1.5,3.5,3.3,0,2.3-1.9,3.8-4.7,3.8-3,0-5-1.6-5.3-4.3h1.3c.3,2,1.7,3.1,4,3.1,2,0,3.3-1,3.3-2.5,0-1.1-.7-1.9-2.4-2.1l-2.2-.4c-2.3-.4-3.5-1.6-3.5-3.3,0-2.2,1.8-3.6,4.5-3.6,2.6-.1,4.7,1.1,5,3.6Z" style="fill: #fcfeff;"/>
  </g>
</svg>